# xmcd
#
# Track frame offsets: 
#        150
#        14127
#        25790
#        42216
#        50614
#        65554
#        74522
#        91828
#        107744
#        124420
#        135895
#        150807
#        165408
#        173331
#        183190
#        196939
#        209297
#        216809
#        232865
#        246189
#
# Disc length: 3481 seconds
#
# Revision: 1
# Processed by: cddbd v1.5.2PL0 Copyright (c) Steve Scherf et al.
# Submitted via: ExactAudioCopy v0.99pb4
#
DISCID=040d9714
DTITLE=Oscar Peterson - In The Jazz Mood CD5
DYEAR=2008
DGENRE=Jazz
TTITLE0=I get a kick out of you
TTITLE1=The man I love
TTITLE2=After all
TTITLE3=Flying home
TTITLE4=What's new?
TTITLE5=Just you
TTITLE6=Dark eyes
TTITLE7=What is it?
TTITLE8=Minor blues
TTITLE9=Pennies from heaven
TTITLE10=Easy to love
TTITLE11=Robbin's nest
TTITLE12=Seven comes eleven
TTITLE13=Rose room
TTITLE14=Hungarian dance
TTITLE15=I've got rhythm
TTITLE16=Get happy
TTITLE17=I'll remember april
TTITLE18=Tea for two
TTITLE19=Yesterdays
EXTD=YEAR: 2005
EXTT0=
EXTT1=
EXTT2=
EXTT3=
EXTT4=
EXTT5=
EXTT6=
EXTT7=
EXTT8=
EXTT9=
EXTT10=
EXTT11=
EXTT12=
EXTT13=
EXTT14=
EXTT15=
EXTT16=
EXTT17=
EXTT18=
EXTT19=
PLAYORDER=
